#!OML:ASF E:\Steps\Project 1\Capture day 1\Session 2\Subject.ASF
:FULLY-SPECIFIED
:DEGREES
227
root -1.41478 17.9506 20.5941 -154.949 0.872352 178.164
lowerback -28.5237 -3.35815 -7.90967
upperback -0.655328 -1.20265 -0.08196
thorax 14.5681 -0.824087 3.81397
lowerneck -2.8561 -3.57756 -0.137478
upperneck 7.39714 -4.93275 4.4335
head 2.99403 -2.22468 1.28882
rclavicle -6.85807e-015 -1.35174e-014
rhumerus -38.2493 -17.3229 -78.5448
rradius 33.4563
rwrist -3.94994
rhand -6.55599 -59.4708
rfingers 7.12502
rthumb 19.2978 -88.5333
lclavicle -6.85807e-015 -1.35174e-014
lhumerus -29.1346 3.16959 81.6055
lradius 24.8377
lwrist -3.30537
lhand -22.479 -11.7901
lfingers 7.12502
lthumb 3.94623 18.1531
rfemur -23.9335 6.62287 19.2963
rtibia 11.2076
rfoot -20.3658 -3.61939
rtoes -23.1357
lfemur -22.0384 -3.72153 -24.6385
ltibia 7.33834
lfoot -6.32166 -6.65132
ltoes -18.6334
228
root -1.41602 17.9503 20.5933 -154.997 0.910196 178.143
lowerback -28.6834 -3.34051 -7.88041
upperback -0.5125 -1.17214 -0.138917
thorax 14.803 -0.823934 3.74366
lowerneck -3.1205 -3.62148 -0.0572437
upperneck 7.62615 -5.00293 4.36898
head 3.11897 -2.25075 1.24682
rclavicle 2.48481e-015 -1.98785e-015
rhumerus -38.0657 -17.3678 -78.6967
rradius 33.514
rwrist -4.02996
rhand -7.39794 -58.3922
rfingers 7.12502
rthumb 18.4881 -87.5336
lclavicle 2.48481e-015 -1.98785e-015
lhumerus -28.8814 3.19037 81.5402
lradius 24.7076
lwrist -3.34022
lhand -22.451 -11.8237
lfingers 7.12502
lthumb 3.97321 18.119
rfemur -23.9095 6.62121 19.2648
rtibia 11.2444
rfoot -20.3957 -3.57716
rtoes -22.9636
lfemur -21.9929 -3.74937 -24.6761
ltibia 7.37406
lfoot -6.37707 -6.59471
ltoes -17.9058
229
root -1.41619 17.9495 20.5938 -154.994 0.917651 178.157
lowerback -28.3647 -3.36815 -7.8995
upperback -0.747114 -1.228 -0.0972464
thorax 14.3898 -0.822282 3.78562
lowerneck -3.09262 -3.66816 -0.0897687
upperneck 7.94497 -5.05683 4.25882
head 3.22158 -2.27227 1.21448
rclavicle 5.96354e-015 -2.14687e-014
rhumerus -38.5115 -17.3866 -78.4553
rradius 33.7442
rwrist -3.6316
rhand -8.45433 -56.0209
rfingers 7.12502
rthumb 17.4716 -85.2558
lclavicle 5.96354e-015 -2.14687e-014
lhumerus -29.279 3.14255 81.5502
lradius 24.709
lwrist -3.35263
lhand -22.3922 -11.8674
lfingers 7.12502
lthumb 4.03002 18.0742
rfemur -23.9236 6.63969 19.2862
rtibia 11.267
rfoot -20.3894 -3.52995
rtoes -22.9529
lfemur -21.9946 -3.6827 -24.6738
ltibia 7.36288
lfoot -6.42109 -6.61771
ltoes -16.8736
230
root -1.41555 17.949 20.5933 -155.001 0.915913 178.174
lowerback -28.6729 -3.38601 -7.87577
upperback -0.527684 -1.23961 -0.106058
thorax 14.7895 -0.853548 3.75063
lowerneck -3.3319 -3.68299 -0.092766
upperneck 8.0409 -5.08623 4.24492
head 3.30052 -2.284 1.20525
rclavicle -6.26172e-015 1.98785e-014
rhumerus -38.2227 -17.6026 -78.5088
rradius 33.7438
rwrist -3.77996
rhand -6.89977 -58.4236
rfingers 7.12502
rthumb 18.9672 -87.5188
lclavicle -6.26172e-015 1.98785e-014
lhumerus -28.9468 3.19022 81.5085
lradius 24.6081
lwrist -3.4046
lhand -22.3497 -11.9442
lfingers 7.12502
lthumb 4.07109 17.9967
rfemur -23.9049 6.6787 19.3065
rtibia 11.2458
rfoot -20.3668 -3.5123
rtoes -23.0171
lfemur -21.9727 -3.47917 -24.7073
ltibia 7.33504
lfoot -6.49465 -6.68718
ltoes -18.8966
231
root -1.41593 17.9491 20.5926 -155.027 0.942379 178.131
lowerback -28.4381 -3.42669 -7.98045
upperback -0.655531 -1.28265 -0.0685959
thorax 14.5389 -0.865187 3.83664
lowerneck -3.37187 -3.70053 -0.26059
upperneck 8.32806 -5.10578 4.30713
head 3.41613 -2.28623 1.25355
rclavicle -2.68359e-014 -4.37326e-014
rhumerus -38.363 -17.3654 -78.4648
rradius 33.6297
rwrist -4.26794
rhand -6.88378 -58.8245
rfingers 7.12502
rthumb 18.9826 -87.9182
lclavicle -2.68359e-014 -4.37326e-014
lhumerus -29.1499 3.38416 81.4687
lradius 24.5248
lwrist -3.51697
lhand -22.2996 -12.2648
lfingers 7.12502
lthumb 4.11946 17.6751
rfemur -23.8769 6.57851 19.2679
rtibia 11.2502
rfoot -20.359 -3.46891
rtoes -23.0977
lfemur -21.9366 -3.42775 -24.7949
ltibia 7.31722
lfoot -6.52675 -6.6685
ltoes -20.4327
232
root -1.41832 17.9489 20.5931 -155.017 0.993783 178.116
lowerback -28.6625 -3.40944 -7.92985
upperback -0.505048 -1.252 -0.12446
thorax 14.8126 -0.864526 3.75462
lowerneck -3.36096 -3.73826 -0.26006
upperneck 8.19646 -5.16159 4.38578
head 3.37292 -2.31509 1.27726
rclavicle -3.97569e-016 -1.98785e-015
rhumerus -38.0217 -17.3106 -78.6023
rradius 33.4996
rwrist -4.29026
rhand -6.60439 -59.29
rfingers 7.12502
rthumb 19.2513 -88.3572
lclavicle -3.97569e-016 -1.98785e-015
lhumerus -28.9115 3.54914 81.3647
lradius 24.3682
lwrist -3.65814
lhand -22.3429 -12.4287
lfingers 7.12502
lthumb 4.07761 17.512
rfemur -23.8883 6.49467 19.2418
rtibia 11.2439
rfoot -20.3213 -3.44756
rtoes -23.577
lfemur -21.9527 -3.66154 -24.7695
ltibia 7.33742
lfoot -6.50761 -6.4899
ltoes -18.9016
233
root -1.41888 17.9483 20.5965 -154.969 1.04874 178.153
lowerback -28.2618 -3.42177 -7.88527
upperback -0.805434 -1.30698 -0.117676
thorax 14.2828 -0.848425 3.72734
lowerneck -3.24308 -3.79062 -0.084148
upperneck 8.53367 -5.21925 4.1393
head 3.45348 -2.33637 1.16452
rclavicle 1.19271e-015 1.59028e-014
rhumerus -38.4907 -17.1107 -78.5253
rradius 33.6027
rwrist -4.44053
rhand -6.60836 -60.0282
rfingers 7.12502
rthumb 19.2475 -89.0958
lclavicle 1.19271e-015 1.59028e-014
lhumerus -29.4126 3.51984 81.2839
lradius 24.342
lwrist -3.71641
lhand -22.3644 -11.9825
lfingers 7.12502
lthumb 4.05685 17.9587
rfemur -23.9702 6.61333 19.2654
rtibia 11.2593
rfoot -20.3074 -3.51699
rtoes -23.9391
lfemur -22.0607 -3.64576 -24.7252
ltibia 7.46281
lfoot -6.51396 -6.50459
ltoes -18.0769
234
root -1.42063 17.9483 20.5977 -154.954 1.07236 178.125
lowerback -28.5833 -3.46529 -7.92188
upperback -0.589606 -1.32903 -0.127325
thorax 14.686 -0.887288 3.71916
lowerneck -3.31588 -3.87141 0.0515077
upperneck 8.53602 -5.33293 4.04551
head 3.46281 -2.39234 1.1038
rclavicle 2.36554e-014 2.0276e-014
rhumerus -38.2336 -17.2399 -78.6084
rradius 33.7465
rwrist -4.26411
rhand -6.18021 -60.462
rfingers 7.12502
rthumb 19.6591 -89.488
lclavicle 2.36554e-014 2.0276e-014
lhumerus -29.1179 3.56118 81.2547
lradius 24.2362
lwrist -3.73837
lhand -22.2882 -11.5965
lfingers 7.12502
lthumb 4.13044 18.3432
rfemur -24.0386 6.55978 19.2348
rtibia 11.3552
rfoot -20.3546 -3.39993
rtoes -23.4045
lfemur -22.1062 -3.60816 -24.7879
ltibia 7.55276
lfoot -6.59193 -6.56108
ltoes -18.9414
235
root -1.42179 17.9483 20.5972 -154.954 1.09093 178.084
lowerback -28.6045 -3.52044 -7.9714
upperback -0.591815 -1.37985 -0.131511
thorax 14.7 -0.912293 3.72079
lowerneck -3.17297 -3.96872 0.0674706
upperneck 8.64636 -5.45645 4.02376
head 3.47536 -2.44996 1.09103
rclavicle -3.8763e-015 -1.98785e-015
rhumerus -38.3243 -17.1979 -78.5908
rradius 33.7427
rwrist -4.3014
rhand -6.91923 -58.3807
rfingers 7.12502
rthumb 18.9485 -87.4777
lclavicle -3.8763e-015 -1.98785e-015
lhumerus -29.159 3.63972 81.1743
lradius 24.1224
lwrist -3.72696
lhand -22.3873 -11.9452
lfingers 7.12502
lthumb 4.03474 17.9963
rfemur -24.0467 6.41378 19.2114
rtibia 11.4021
rfoot -20.3659 -3.21819
rtoes -22.9522
lfemur -22.0859 -3.64016 -24.8438
ltibia 7.52144
lfoot -6.57931 -6.6035
ltoes -18.5011
236
root -1.42252 17.948 20.5973 -154.94 1.11249 178.1
lowerback -28.6492 -3.55639 -7.98526
upperback -0.572875 -1.42601 -0.0923538
thorax 14.7502 -0.93835 3.75155
lowerneck -3.15344 -4.00957 -0.0761444
upperneck 8.65026 -5.5122 4.15791
head 3.48483 -2.47655 1.15824
rclavicle 5.96354e-016 -1.35174e-014
rhumerus -38.3093 -17.2059 -78.495
rradius 33.7673
rwrist -4.01443
rhand -7.75307 -55.8742
rfingers 7.12502
rthumb 18.1464 -85.0477
lclavicle 5.96354e-016 -1.35174e-014
lhumerus -29.1698 3.70345 81.1662
lradius 24.0419
lwrist -3.717
lhand -22.4387 -12.1624
lfingers 7.12502
lthumb 3.98512 17.7801
rfemur -24.0643 6.41536 19.2197
rtibia 11.3885
rfoot -20.3412 -3.16262
rtoes -22.7876
lfemur -22.095 -3.69465 -24.8154
ltibia 7.48921
lfoot -6.52894 -6.5189
ltoes -17.6537
237
root -1.42366 17.9473 20.5964 -154.912 1.13818 178.1
lowerback -28.7094 -3.58673 -7.99164
upperback -0.537071 -1.46478 -0.0647294
thorax 14.8259 -0.962144 3.76803
lowerneck -3.18824 -4.08011 -0.232969
upperneck 8.56693 -5.61527 4.37635
head 3.47985 -2.52616 1.25282
rclavicle 1.2921e-015 -2.38542e-015
rhumerus -38.3162 -17.1918 -78.4437
rradius 33.9499
rwrist -3.81708
rhand -7.83919 -54.7928
rfingers 7.12502
rthumb 18.0636 -83.974
lclavicle 1.2921e-015 -2.38542e-015
lhumerus -29.1797 3.79815 81.181
lradius 24.0092
lwrist -3.89132
lhand -22.4451 -12.1181
lfingers 7.12502
lthumb 3.97891 17.8245
rfemur -24.1005 6.45256 19.1974
rtibia 11.364
rfoot -20.3424 -3.11812
rtoes -22.5009
lfemur -22.12 -3.711 -24.8286
ltibia 7.48588
lfoot -6.51455 -6.48971
ltoes -17.1848
238
root -1.42306 17.9462 20.5959 -154.902 1.1549 178.106
lowerback -28.6501 -3.6175 -7.97524
upperback -0.573993 -1.51336 -0.0714875
thorax 14.7605 -0.977626 3.73419
lowerneck -3.09165 -4.152 -0.258478
upperneck 8.56118 -5.71191 4.45939
head 3.46646 -2.57129 1.28243
rclavicle -7.45443e-015 -1.23246e-014
rhumerus -38.5588 -17.1509 -78.4604
rradius 34.2996
rwrist -3.84017
rhand -7.67313 -54.7523
rfingers 7.12502
rthumb 18.2233 -83.9187
lclavicle -7.45443e-015 -1.23246e-014
lhumerus -29.2518 3.91712 81.0958
lradius 23.8629
lwrist -4.03553
lhand -22.2777 -12.3055
lfingers 7.12502
lthumb 4.14061 17.634
rfemur -24.1151 6.49187 19.1964
rtibia 11.3793
rfoot -20.3877 -3.17945
rtoes -22.7871
lfemur -22.1402 -3.61106 -24.8588
ltibia 7.4856
lfoot -6.54235 -6.54236
ltoes -18.6409
